<svg data-v-423bf9ae="" xmlns="http://www.w3.org/2000/svg" viewBox="0 0 206.4054255514566 60" class="font"><!----><!----><defs data-v-423bf9ae=""><linearGradient data-v-423bf9ae="" gradientTransform="rotate(25)" id="6fbdb47f-5aa8-450e-84b2-c3958a180ae3" x1="0%" y1="0%" x2="100%" y2="0%"><stop data-v-423bf9ae="" offset="0%" style="stop-color: rgb(142, 66, 211); stop-opacity: 1;"></stop><stop data-v-423bf9ae="" offset="100%" style="stop-color: rgb(212, 105, 117); stop-opacity: 1;"></stop></linearGradient></defs><g data-v-423bf9ae="" id="b6795862-32c5-4208-94fd-ed5acdd40494" fill="url(#6fbdb47f-5aa8-450e-84b2-c3958a180ae3)" transform="matrix(4.521476859851707,0,0,4.521476859851707,0.40693331953534084,0)"><path d="M-0.09 10.50L3.56 0L5.19 0L8.84 10.50L6.56 10.50L5.63 7.88L2.68 7.88L1.75 10.50L-0.09 10.50ZM3.24 6.42L5.16 6.42L4.17 3.32L3.24 6.42ZM9.48 2.92L9.48 10.50L11.67 10.50L11.67 5.10Q11.67 4.23 12.61 4.23Q13.56 4.23 13.56 5.10L13.56 5.10L13.56 10.50L15.69 10.50L15.69 5.10Q15.69 4.23 16.63 4.23Q17.56 4.23 17.56 5.10L17.56 5.10L17.56 10.50L19.75 10.50L19.75 4.67Q19.75 2.77 17.78 2.77Q15.81 2.77 15.40 3.70L15.40 3.70Q15.08 2.77 13.37 2.77Q11.67 2.77 11.67 3.94L11.67 3.94L11.67 2.92L9.48 2.92ZM23.10 2.92L20.91 2.92L20.91 13.27L23.10 13.27L23.10 9.48Q23.10 10.65 25.36 10.65Q27.62 10.65 27.62 8.75L27.62 8.75L27.62 4.67Q27.62 2.77 25.36 2.77Q23.10 2.77 23.10 3.94L23.10 3.94L23.10 2.92ZM23.10 8.31L23.10 8.31L23.10 5.10Q23.10 4.23 24.27 4.23L24.27 4.23Q25.43 4.23 25.43 5.10L25.43 5.10L25.43 8.31Q25.43 9.19 24.27 9.19L24.27 9.19Q23.10 9.19 23.10 8.31ZM28.79 10.50L30.98 10.50L30.98 6.59L31.41 5.80L33.45 10.50L35.82 10.50L32.92 3.96L35.38 0L33.70 0L30.98 4.40L30.98 0L28.79 0L28.79 10.50ZM42.09 10.50L45.56 0L43.81 0L41.48 7.64L39.14 0L36.66 0L40.28 10.50L42.09 10.50Z"></path></g><!----><!----></svg>